<svg width="116" height="106" viewBox="0 0 116 106" fill="none" xmlns="http://www.w3.org/2000/svg">
<path d="M50.3217 8.15234C39.1895 8.15235 28.5133 12.3693 20.6417 19.8755C12.7701 27.3818 8.34785 37.5624 8.34784 48.1778C8.34785 58.7932 12.7701 68.9738 20.6417 76.48C28.5133 83.9863 39.1895 88.2032 50.3217 88.2032C61.4538 88.2032 72.13 83.9863 80.0017 76.48C87.8733 68.9738 92.2955 58.7932 92.2955 48.1778C92.2835 44.8531 91.8371 41.5428 90.9666 38.3234C90.9617 38.3294 90.9574 38.3349 90.9525 38.3406L56.7779 8.67909C54.6433 8.34513 52.4848 8.16902 50.3217 8.15234Z" fill="url(#paint0_linear_69_16)"/>
<path d="M50.3217 8.15234C39.1895 8.15235 28.5133 12.3693 20.6417 19.8755C12.7701 27.3818 8.34785 37.5624 8.34784 48.1778C8.34785 58.7932 12.7701 68.9738 20.6417 76.48C28.5133 83.9863 39.1895 88.2032 50.3217 88.2032C61.4538 88.2032 72.13 83.9863 80.0017 76.48C87.8733 68.9738 92.2955 58.7932 92.2955 48.1778C92.2835 44.8531 91.8371 41.5428 90.9666 38.3234C90.9617 38.3294 90.9574 38.3349 90.9525 38.3406L56.7779 8.67909C54.6433 8.34513 52.4848 8.16902 50.3217 8.15234Z" fill="url(#paint1_linear_69_16)"/>
<path d="M62.2506 29H38.0084C33.1043 29 28 32.5079 28 38.1209V58.7824C28 64.3955 33.1043 67.9034 38.0084 67.9034H62.2506C67.1546 67.9034 72.259 64.3955 72.259 58.7824V38.1209C72.259 32.5079 67.1546 29 62.2506 29Z" stroke="white" stroke-width="8" stroke-linecap="square" stroke-linejoin="round"/>
<path d="M63.599 38.5153C64.8258 38.5153 65.8203 37.6676 65.8203 36.622C65.8203 35.5764 64.8258 34.7288 63.599 34.7288C62.3722 34.7288 61.3776 35.5764 61.3776 36.622C61.3776 37.6676 62.3722 38.5153 63.599 38.5153Z" fill="white"/>
<path d="M49.7955 59.4791C53.0264 59.4791 56.0987 58.4801 58.4477 56.6802C60.8007 54.8773 62.591 52.1053 62.591 48.7396C62.591 45.3739 60.8007 42.6018 58.4477 40.7989C56.0987 38.999 53.0264 38 49.7955 38C46.5646 38 43.4922 38.999 41.1432 40.7989C38.7903 42.6018 37 45.3739 37 48.7396C37 52.1053 38.7903 54.8773 41.1432 56.6802C43.4922 58.4801 46.5646 59.4791 49.7955 59.4791Z" stroke="white" stroke-width="8" stroke-linecap="square" stroke-linejoin="round"/>
<path d="M90.9925 38.3679C90.9925 38.3679 76.1369 51.1427 61.0651 37.8199C47.834 26.1242 56.6564 8.56616 56.6564 8.56616" fill="#800033"/>
<defs>
<linearGradient id="paint0_linear_69_16" x1="20.8603" y1="20.2529" x2="76.1391" y2="76.3426" gradientUnits="userSpaceOnUse">
<stop stop-color="#0000FF"/>
<stop offset="1" stop-color="#0000FF" stop-opacity="0"/>
</linearGradient>
<linearGradient id="paint1_linear_69_16" x1="81.3104" y1="73.1182" x2="22.359" y2="21.0749" gradientUnits="userSpaceOnUse">
<stop stop-color="#800080"/>
<stop offset="1" stop-color="#D40000"/>
</linearGradient>
</defs>
</svg>
